<?xml version="1.0" encoding="utf-8"?>
<!-- Generator: Adobe Illustrator 26.0.2, SVG Export Plug-In . SVG Version: 6.00 Build 0)  -->
<svg version="1.1" id="Capa_1" xmlns="http://www.w3.org/2000/svg" xmlns:xlink="http://www.w3.org/1999/xlink" x="0px" y="0px"
	 viewBox="0 0 628 150" style="enable-background:new 0 0 628 150;" xml:space="preserve">
<style type="text/css">
	.st0{fill:#000000;}
	.st1{fill:#000000;}
</style>
<g>
	<path class="st0" d="M0,96.6c0-32,21-53,54-53c28.2,0,46,15.3,50,39.9H74.1c-2.4-10.3-9.4-16.8-20.6-16.8
		c-14.8,0-24.5,12.2-24.5,29.9c0,17.8,9.5,29.9,24.5,29.9c11,0,18.6-6.6,20.7-17.2h29.9c-4,24.9-22.8,40.5-51.2,40.5
		C20,149.7,0,129.3,0,96.6z"/>
	<path class="st0" d="M190.5,44.3h28.7v104.1h-15.5c-6.9,0-12.6-5.6-12.6-12.6c-6.6,8.1-15.9,13.6-30.6,13.6
		c-21.4,0-41.3-10.7-41.3-47.6V44.3h28.7v53.9c0,18.6,6.1,27.7,20.2,27.7c14.2,0,22.5-10.3,22.5-29.5L190.5,44.3L190.5,44.3z"/>
	<path class="st0" d="M232.9,18c0-9.3,7.4-16.1,16.7-16.1s16.7,6.8,16.7,16.1c0,9.1-7.4,15.8-16.7,15.8
		C240.3,33.9,232.9,27,232.9,18z M235.2,44.3H264v104.1h-28.8V44.3z"/>
	<path class="st0" d="M356.7,7.1h28.6v141.3H372c-7.9,0-14.3-6.5-14.3-14.3c-6.9,8.9-17,15.6-32,15.6c-27.9,0-48.4-20.3-48.4-53.3
		c0-32,20.3-52.8,48.3-52.8c14.3,0,24.8,5.5,31.5,14.1V7.1H356.7z M357.3,96.7c0-17.8-9.7-30.1-25.3-30.1
		c-15.6,0-25.5,12.1-25.5,29.9s10,29.9,25.5,29.9C347.5,126.3,357.3,114.3,357.3,96.7z"/>
	<path class="st0" d="M399.9,96.8c0-32.1,21-53.2,52.9-53.2c30.9,0,51.7,19.4,52.2,49.8c0,2.9-0.2,6.5-0.9,9.6h-74.7v1.4
		c0.5,14.7,10.1,23.6,24.4,23.6c11.4,0,19.5-5,21.9-14.7h27.8c-3.2,20.1-21,36.4-48.5,36.4C420.6,149.7,399.9,128.9,399.9,96.8z
		 M476.5,84.5c-2.1-12.7-10.6-19.7-23.4-19.7c-12.1,0-21.3,7.5-23.2,19.7H476.5z"/>
</g>
<path class="st1" d="M573.6,43.6c-32.9,0-54.3,21-54.3,52.4c0,31.1,21,52,53.3,52.4h2c9.5,0,14.2-6,14.2-12c0-2.9-1.2-5.6-3.3-7.5
	c-1.4-1.3-2.9-2.3-5.1-2.9c-1.6-0.5-3.3-0.6-4.8-0.5c-0.7,0.1-1.4,0.1-2,0.1c-15.9,0-25.4-12.3-25.4-29.8s9.6-29.5,25.4-29.5
	c9.3,0,16.6,4.2,20.9,11.2c3.2,4.8,4.8,11.3,4.8,18.5c0,7.6-1.9,14.1-5.3,19.2c-0.1,0.2-0.3,0.4-0.4,0.5c-0.1,0.1-0.1,0.2-0.2,0.3
	c-1.2,1.7-2.5,3.2-4.2,4.4c5.1,3.3,8.6,8.5,8.6,15.8c0,3.3-1.6,7.4-2.8,9c19.9-7.4,33-25.4,33-49.1
	C627.9,64.5,606.5,43.6,573.6,43.6z"/>
</svg>
