<?xml version="1.0" encoding="UTF-8"?>
<svg width="1053px" height="433px" viewBox="0 0 1053 433" version="1.1" xmlns="http://www.w3.org/2000/svg" xmlns:xlink="http://www.w3.org/1999/xlink">
    <title>Logo_kuik!_color_negativo@1x</title>
    <g id="Logo_kuik!_color_negativo" stroke="none" stroke-width="1" fill="none" fill-rule="evenodd">
        <g id="Group" fill-rule="nonzero">
            <path d="M189.87,391.71 C196.42,391.71 201.59,393.54 205.37,397.21 C209.15,400.88 211.04,405.87 211.04,412.18 C211.04,418.49 209.15,423.42 205.37,426.95 C201.59,430.48 196.42,432.24 189.87,432.24 L177.06,432.24 L177.06,391.7 L189.87,391.7 L189.87,391.71 Z M182.38,428.15 L189.87,428.15 C194.98,428.15 198.88,426.75 201.57,423.94 C204.26,421.13 205.61,417.21 205.61,412.18 C205.61,407.15 204.27,403.23 201.57,400.42 C198.88,397.61 194.98,396.21 189.87,396.21 L182.38,396.21 L182.38,428.15 Z" id="Shape" fill="#000000"></path>
            <polygon id="Path" fill="#000000" points="223.62 432.24 223.62 391.7 228.94 391.7 228.94 432.24"></polygon>
            <path d="M261.79,432.59 C256.19,432.59 251.41,430.64 247.43,426.74 C243.45,422.84 241.46,417.9 241.46,411.91 C241.46,405.92 243.45,400.99 247.43,397.11 C251.41,393.23 256.3,391.29 262.11,391.29 C266.32,391.29 270.07,392.29 273.37,394.27 C276.66,396.26 279.09,399.13 280.65,402.87 L274.22,402.87 C271.8,398.31 267.76,396.03 262.11,396.03 C257.7,396.03 254.07,397.48 251.2,400.39 C248.33,403.3 246.9,407.15 246.9,411.94 C246.9,416.73 248.33,420.6 251.2,423.52 C254.07,426.44 257.63,427.91 261.91,427.91 C266.19,427.91 269.61,426.7 272.2,424.28 C274.79,421.86 276.3,418.59 276.73,414.45 L260,414.45 L260,410.24 L282.34,410.24 L282.34,414.45 C281.79,419.68 279.63,424 275.85,427.44 C272.07,430.87 267.38,432.59 261.78,432.59 L261.79,432.59 Z" id="Path" fill="#000000"></path>
            <polygon id="Path" fill="#000000" points="294.86 432.24 294.86 391.7 300.18 391.7 300.18 432.24"></polygon>
            <polygon id="Path" fill="#000000" points="312.99 395.97 312.99 391.7 339.72 391.7 339.72 395.97 329.02 395.97 329.02 432.24 323.7 432.24 323.7 395.97 313 395.97"></polygon>
            <path d="M380.55,432.24 L377.39,423.35 L359.37,423.35 L356.21,432.24 L350.77,432.24 L365.51,391.7 L371.36,391.7 L386.04,432.24 L380.54,432.24 L380.55,432.24 Z M360.9,419.14 L375.87,419.14 L368.38,398.2 L360.89,419.14 L360.9,419.14 Z" id="Shape" fill="#000000"></path>
            <polygon id="Path" fill="#000000" points="398.86 391.71 404.18 391.71 404.18 428.15 418.39 428.15 418.39 432.24 398.85 432.24 398.85 391.7"></polygon>
            <path d="M457.53,402.53 C457.53,404.01 457.94,405.24 458.76,406.21 C459.58,407.19 460.63,407.91 461.92,408.37 C463.21,408.84 464.64,409.25 466.22,409.6 C467.8,409.95 469.38,410.35 470.96,410.8 C472.54,411.25 473.97,411.82 475.26,412.53 C476.55,413.24 477.6,414.28 478.42,415.69 C479.24,417.09 479.65,418.83 479.65,420.9 C479.65,424.06 478.44,426.81 476.02,429.15 C473.6,431.49 470.34,432.66 466.22,432.66 C462.1,432.66 458.76,431.72 456.19,429.82 C453.62,427.93 452.33,425.37 452.33,422.13 L458,422.13 C458.16,423.96 458.89,425.44 460.19,426.58 C461.5,427.71 463.44,428.28 466.01,428.28 C468.58,428.28 470.63,427.62 472.15,426.29 C473.67,424.96 474.43,423.41 474.43,421.64 C474.43,419.87 474.02,418.5 473.2,417.55 C472.38,416.59 471.33,415.88 470.04,415.42 C468.75,414.95 467.32,414.55 465.74,414.22 C464.16,413.89 462.58,413.49 461,413.02 C459.42,412.55 457.99,411.96 456.7,411.24 C455.41,410.52 454.36,409.45 453.54,408.02 C452.72,406.6 452.31,404.83 452.31,402.73 C452.31,399.3 453.53,396.54 455.97,394.45 C458.41,392.36 461.59,391.32 465.5,391.32 C469.41,391.32 472.54,392.23 474.86,394.04 C477.18,395.85 478.52,398.36 478.87,401.56 L472.96,401.56 C472.8,399.96 472.05,398.6 470.71,397.47 C469.37,396.34 467.55,395.77 465.27,395.77 C462.99,395.77 461.13,396.35 459.68,397.5 C458.23,398.65 457.52,400.34 457.52,402.56 L457.53,402.53 Z" id="Path" fill="#000000"></path>
            <path d="M511.92,432.65 C506.11,432.65 501.22,430.69 497.24,426.77 C493.26,422.85 491.27,417.9 491.27,411.91 C491.27,405.92 493.26,400.99 497.24,397.11 C501.22,393.23 506.11,391.29 511.92,391.29 C517.73,391.29 522.61,393.23 526.57,397.11 C530.53,400.99 532.51,405.93 532.51,411.94 C532.51,417.95 530.53,422.9 526.57,426.8 C522.61,430.7 517.73,432.65 511.92,432.65 L511.92,432.65 Z M522.8,423.53 C525.65,420.61 527.07,416.74 527.07,411.95 C527.07,407.16 525.65,403.3 522.8,400.4 C519.95,397.5 516.32,396.04 511.89,396.04 C507.46,396.04 503.82,397.49 500.95,400.4 C498.08,403.31 496.65,407.16 496.65,411.95 C496.65,416.74 498.09,420.61 500.98,423.53 C503.86,426.45 507.51,427.92 511.92,427.92 C516.33,427.92 519.95,426.46 522.8,423.53 L522.8,423.53 Z" id="Shape" fill="#000000"></path>
            <polygon id="Path" fill="#000000" points="544.97 391.71 550.29 391.71 550.29 428.15 564.5 428.15 564.5 432.24 544.96 432.24 544.96 391.7"></polygon>
            <path d="M575.86,418.03 L575.86,391.71 L581.24,391.71 L581.24,418.03 C581.24,421.38 582.13,423.89 583.9,425.55 C585.67,427.21 588.12,428.04 591.24,428.04 C594.36,428.04 596.82,427.21 598.61,425.55 C600.4,423.89 601.3,421.39 601.3,418.03 L601.3,391.71 L606.62,391.71 L606.62,418.03 C606.62,422.79 605.17,426.41 602.26,428.91 C599.35,431.41 595.67,432.65 591.2,432.65 C586.73,432.65 583.06,431.4 580.17,428.91 C577.28,426.41 575.84,422.79 575.84,418.03 L575.86,418.03 Z" id="Path" fill="#000000"></path>
            <polygon id="Path" fill="#000000" points="619.31 395.97 619.31 391.7 646.04 391.7 646.04 395.97 635.34 395.97 635.34 432.24 630.02 432.24 630.02 395.97"></polygon>
            <polygon id="Path" fill="#000000" points="658.91 432.24 658.91 391.7 664.23 391.7 664.23 432.24"></polygon>
            <path d="M697.4,432.65 C691.59,432.65 686.69,430.69 682.72,426.77 C678.74,422.85 676.75,417.9 676.75,411.91 C676.75,405.92 678.74,400.99 682.72,397.11 C686.7,393.23 691.59,391.29 697.4,391.29 C703.21,391.29 708.09,393.23 712.05,397.11 C716.01,400.99 717.99,405.93 717.99,411.94 C717.99,417.95 716.01,422.9 712.05,426.8 C708.09,430.7 703.21,432.65 697.4,432.65 L697.4,432.65 Z M708.28,423.53 C711.13,420.61 712.55,416.74 712.55,411.95 C712.55,407.16 711.13,403.3 708.28,400.4 C705.43,397.5 701.8,396.04 697.37,396.04 C692.94,396.04 689.3,397.49 686.43,400.4 C683.56,403.31 682.13,407.16 682.13,411.95 C682.13,416.74 683.57,420.61 686.46,423.53 C689.35,426.45 692.99,427.92 697.4,427.92 C701.81,427.92 705.43,426.46 708.28,423.53 Z" id="Shape" fill="#000000"></path>
            <polygon id="Path" fill="#000000" points="757.18 391.71 762.5 391.71 762.5 432.25 757.18 432.25 735.77 400.08 735.77 432.25 730.45 432.25 730.45 391.71 735.77 391.71 757.18 423.88"></polygon>
            <path d="M781.46,402.53 C781.46,404.01 781.87,405.24 782.69,406.21 C783.51,407.19 784.56,407.91 785.85,408.37 C787.14,408.84 788.57,409.25 790.15,409.6 C791.73,409.95 793.31,410.35 794.89,410.8 C796.47,411.25 797.9,411.82 799.19,412.53 C800.48,413.23 801.53,414.28 802.35,415.69 C803.17,417.09 803.58,418.83 803.58,420.9 C803.58,424.06 802.37,426.81 799.95,429.15 C797.53,431.49 794.27,432.66 790.15,432.66 C786.03,432.66 782.69,431.72 780.12,429.82 C777.55,427.93 776.26,425.37 776.26,422.13 L781.93,422.13 C782.09,423.96 782.82,425.44 784.12,426.58 C785.43,427.71 787.37,428.28 789.94,428.28 C792.51,428.28 794.56,427.62 796.08,426.29 C797.6,424.96 798.36,423.41 798.36,421.64 C798.36,419.87 797.95,418.5 797.13,417.55 C796.31,416.59 795.26,415.88 793.97,415.42 C792.68,414.96 791.25,414.55 789.67,414.22 C788.09,413.89 786.51,413.49 784.93,413.02 C783.35,412.55 781.92,411.96 780.63,411.24 C779.34,410.52 778.29,409.45 777.47,408.02 C776.65,406.6 776.24,404.83 776.24,402.73 C776.24,399.3 777.46,396.54 779.9,394.45 C782.34,392.36 785.52,391.32 789.43,391.32 C793.34,391.32 796.47,392.23 798.79,394.04 C801.11,395.85 802.45,398.36 802.8,401.56 L796.89,401.56 C796.73,399.96 795.98,398.6 794.64,397.47 C793.3,396.34 791.48,395.77 789.2,395.77 C786.92,395.77 785.06,396.35 783.61,397.5 C782.17,398.65 781.45,400.34 781.45,402.56 L781.46,402.53 Z" id="Path" fill="#000000"></path>
            <polygon id="Path" fill="#00BA73" points="1030.42 16.87 954.24 16.87 962.45 224.12 1022.21 224.12"></polygon>
            <path d="M1014.02,249.53 C1003.17,249.53 994.05,253.24 986.64,260.65 C979.23,268.06 975.52,277.19 975.52,288.03 C975.52,298.87 979.23,308 986.64,315.41 C994.05,322.82 1003.18,326.53 1014.02,326.53 C1024.86,326.53 1033.99,322.82 1041.4,315.41 C1048.81,308 1052.52,298.87 1052.52,288.03 C1052.52,277.19 1048.81,268.06 1041.4,260.65 C1033.99,253.24 1024.86,249.53 1014.02,249.53 Z" id="Path" fill="#00BA73"></path>
            <polygon id="Path" fill="#000000" points="620.57 96.76 550.15 96.76 550.15 214.12 560.19 214.12 560.19 326.54 630.61 326.54 630.61 214.12 620.57 214.12"></polygon>
            <path d="M585.36,82.76 C596.89,82.76 606.63,78.78 614.6,70.82 C622.56,62.86 626.54,53.05 626.54,41.38 C626.54,29.71 622.56,19.9 614.6,11.94 C606.63,3.98 596.89,0 585.36,0 C573.83,0 564.08,3.98 556.12,11.94 C548.15,19.91 544.18,29.72 544.18,41.38 C544.18,53.04 548.16,62.86 556.12,70.82 C564.08,78.79 573.83,82.76 585.36,82.76 L585.36,82.76 Z" id="Path" fill="#000000"></path>
            <polygon id="Path" fill="#000000" points="137.95 214.12 137.95 214.12 236.37 96.76 141.66 96.76 70.42 192.71 70.42 21.81 0 21.81 0 214.12 20.04 214.12 20.04 326.54 90.45 326.54 90.45 234.71 162.93 326.54 256.41 326.54 157.99 214.12"></polygon>
            <polygon id="Path" fill="#000000" points="835.33 214.12 815.29 214.12 815.29 214.12 913.71 96.76 819 96.76 747.76 192.71 747.76 21.81 677.34 21.81 677.34 214.12 697.38 214.12 697.38 326.54 767.79 326.54 767.79 234.71 840.27 326.54 933.75 326.54"></polygon>
            <path d="M493.13,97.01 L424.12,97.01 L424.12,214.12 L434.12,214.12 L434.12,232.37 C434.12,255.88 420.09,270.67 394.69,270.67 C370.8,270.67 354.88,255.88 354.88,230.48 L354.88,214.13 L344.88,214.13 L344.88,97.02 L274.36,97.02 L274.36,214.13 L284.36,214.13 L284.36,232.38 C284.36,296.84 327.2,335.51 393.94,335.51 C460.68,335.51 503.14,299.87 503.14,235.03 L503.14,214.13 L493.14,214.13 L493.14,97.02 L493.13,97.01 Z" id="Path" fill="#000000"></path>
        </g>
    </g>
</svg>